Coordinates
version=1
nRows=16
nColumns=40
inDegrees=yes

Units are S.I. units (second, meters, Newtons, ...)
Angles are in degrees.

endheader
time	pelvis_tilt	pelvis_list	pelvis_rotation	pelvis_tx	pelvis_ty	pelvis_tz	hip_flexion_r	hip_adduction_r	hip_rotation_r	knee_angle_r	knee_angle_r_beta	ankle_angle_r	subtalar_angle_r	mtp_angle_r	hip_flexion_l	hip_adduction_l	hip_rotation_l	knee_angle_l	knee_angle_l_beta	ankle_angle_l	subtalar_angle_l	mtp_angle_l	lumbar_extension	lumbar_bending	lumbar_rotation	arm_flex_r	arm_add_r	arm_rot_r	elbow_flex_r	pro_sup_r	wrist_flex_r	wrist_dev_r	arm_flex_l	arm_add_l	arm_rot_l	elbow_flex_l	pro_sup_l	wrist_flex_l	wrist_dev_l
      7.43000000	     -1.91088925	     -5.15434506	      3.86428461	      1.03553620	      0.93181389	      0.50953384	     10.66595202	      2.29705144	    -16.41552253	     17.20322901	     17.20322901	     10.37845734	      1.32520460	     -5.02113939	     30.46349845	    -13.74754867	      1.33662243	     61.95150256	     61.95150256	      7.31259395	    -16.96865780	      7.84170632	    -10.81030560	      5.67822916	      3.08243776	     17.17531625	    -19.98630496	     -5.14671244	     72.39819111	     45.57798338	      0.00000000	      0.00000000	     -1.34716284	    -10.22998187	     -4.80259706	     30.58098863	     45.40335801	      0.00000000	      0.00000000
      7.44314286	     -2.11760636	     -4.98761117	      4.30424683	      1.03370771	      0.93220103	      0.50966608	     10.36072126	      2.17860709	    -16.69538969	     16.75688108	     16.75688108	     10.48559339	      1.34709882	     -5.01732299	     31.49757693	    -13.48707157	      1.09325373	     59.66854714	     59.66854714	      7.52382556	    -17.12639705	      8.07057911	    -10.71901909	      5.58332932	      3.52820050	     18.70317935	    -20.38640503	     -5.37747317	     73.09952410	     45.56893383	      0.00000000	      0.00000000	     -1.81035251	     -9.98553490	     -4.74615122	     30.37647310	     45.39170623	      0.00000000	      0.00000000
      7.45628571	     -2.12771467	     -4.84437493	      4.79489573	      1.03208260	      0.93296012	      0.50973519	      9.67318781	      2.14019599	    -17.08635951	     15.99782308	     15.99782308	     10.46675659	      1.56885517	     -5.02296412	     32.07103099	    -13.11920501	      0.97192033	     56.97853572	     56.97853572	      7.58091715	    -17.53482993	      8.39827161	    -10.85475565	      5.52046509	      3.60457422	     20.25519251	    -20.41566958	     -5.48958769	     74.30067315	     45.53796410	      0.00000000	      0.00000000	     -2.49969985	     -9.87991203	     -4.66859890	     30.23011583	     45.37771894	      0.00000000	      0.00000000
      7.46942857	     -2.22818148	     -4.72596785	      5.24300479	      1.03039444	      0.93339940	      0.50973679	      9.17792203	      2.10342635	    -17.41569432	     15.39854889	     15.39854889	     10.48935571	      1.69344071	     -5.10834393	     32.61130322	    -12.78743744	      0.77421350	     54.10179147	     54.10179147	      7.67770828	    -17.64338526	      8.74945774	    -10.89328466	      5.49030064	      3.86208996	     21.77350840	    -20.67568390	     -5.60610695	     75.35655202	     45.51227872	      0.00000000	      0.00000000	     -3.16623357	     -9.72485111	     -4.59436269	     30.31230186	     45.36338168	      0.00000000	      0.00000000
      7.48257143	     -2.44117305	     -4.64571975	      5.64594818	      1.02862831	      0.93349254	      0.50963878	      8.91030999	      2.07151476	    -17.68341281	     14.97374391	     14.97374391	     10.56361580	      1.68157475	     -5.16447553	     33.14750352	    -12.46855259	      0.56072376	     51.04301475	     51.04301475	      7.81094358	    -17.55706839	      9.16080111	    -10.82203615	      5.50320056	      4.25393109	     23.28566884	    -21.08843979	     -5.79207849	     76.14249275	     45.49896583	      0.00000000	      0.00000000	     -3.71292437	     -9.50017210	     -4.53333671	     30.35276119	     45.34889777	      0.00000000	      0.00000000
      7.49571429	     -2.55612606	     -4.54423327	      6.03069195	      1.02697642	      0.93368256	      0.50937560	      8.50030970	      2.02767048	    -17.92909612	     14.49061439	     14.49061439	     10.60637326	      1.73189109	     -5.23063855	     33.36574076	    -12.05166875	      0.41430373	     47.70103422	     47.70103422	      7.89325834	    -17.46852144	      9.65889990	    -10.85719937	      5.51127797	      4.51939895	     24.75146956	    -21.31098413	     -5.90473603	     77.04352497	     45.47900755	      0.00000000	      0.00000000	     -4.29720333	     -9.32595739	     -4.46184180	     30.44970101	     45.33247597	      0.00000000	      0.00000000
      7.50885714	     -2.56024220	     -4.50127832	      6.42281210	      1.02545351	      0.93388887	      0.50901551	      7.95275362	      2.05770210	    -18.25592629	     13.97553095	     13.97553095	     10.63997390	      1.89256740	     -5.41604037	     33.33866834	    -11.64958888	      0.40181080	     44.17610832	     44.17610832	      7.83037293	    -17.31781757	     10.16100868	    -10.98085400	      5.53977921	      4.63036788	     26.16017492	    -21.31833046	     -5.87652714	     78.13645887	     45.44717423	      0.00000000	      0.00000000	     -5.02172105	     -9.19722486	     -4.35102301	     30.75935985	     45.31045278	      0.00000000	      0.00000000
      7.52200000	     -2.72887046	     -4.49677110	      6.74846983	      1.02380646	      0.93365548	      0.50849191	      7.70068701	      2.06930581	    -18.49757306	     13.65732425	     13.65732425	     10.72854789	      1.94592912	     -5.60009298	     33.41349300	    -11.28735070	      0.36140717	     40.60006716	     40.60006716	      7.82800265	    -16.78884431	     10.56787707	    -10.95111079	      5.63229208	      4.89959378	     27.55575351	    -21.48217502	     -5.90432620	     78.95107782	     45.42692729	      0.00000000	      0.00000000	     -5.59801137	     -8.97870561	     -4.24674121	     30.98973752	     45.29052150	      0.00000000	      0.00000000
      7.53514286	     -2.82654790	     -4.46794374	      7.03113448	      1.02225900	      0.93348401	      0.50782555	      7.36161114	      2.05601190	    -18.71167517	     13.33366124	     13.33366124	     10.82591327	      2.04788847	     -5.82174354	     33.23888210	    -10.88271478	      0.36589145	     36.88333072	     36.88333072	      7.72850012	    -16.11017227	     10.89134891	    -11.01093668	      5.70829301	      5.06384089	     28.91604337	    -21.46109956	     -5.83951491	     79.82323628	     45.40143926	      0.00000000	      0.00000000	     -6.21231815	     -8.79179633	     -4.11867650	     31.25859405	     45.26787086	      0.00000000	      0.00000000
      7.54828571	     -2.96514820	     -4.54438709	      7.29185205	      1.02079143	      0.93303501	      0.50708468	      7.11374120	      2.13562792	    -18.96246983	     13.09399615	     13.09399615	     10.95440869	      2.11279226	     -6.05922659	     33.09376964	    -10.60010696	      0.39031402	     33.27646509	     33.27646509	      7.60672524	    -15.10027806	     11.09913248	    -10.95718049	      5.86845257	      5.22950007	     30.25828462	    -21.44275841	     -5.76664233	     80.58990858	     45.37928254	      0.00000000	      0.00000000	     -6.74785822	     -8.52512105	     -3.97649526	     31.51135787	     45.24486724	      0.00000000	      0.00000000
      7.56142857	     -3.16598475	     -4.67072022	      7.50902051	      1.01932608	      0.93237450	      0.50623425	      6.97453746	      2.24693718	    -19.15049989	     12.91894205	     12.91894205	     11.11771743	      2.13054893	     -6.24315791	     33.01203323	    -10.37387387	      0.42513037	     29.88371906	     29.88371906	      7.51258989	    -13.81033173	     11.37768707	    -10.85660040	      6.07381298	      5.47601747	     31.51908264	    -21.43293827	     -5.74028569	     81.21900644	     45.36314950	      0.00000000	      0.00000000	     -7.14914561	     -8.20824579	     -3.86259634	     31.62620423	     45.22609133	      0.00000000	      0.00000000
      7.57457143	     -3.21431748	     -4.69730628	      7.68119847	      1.01811960	      0.93202141	      0.50528899	      6.60679682	      2.27817692	    -19.27162289	     12.67664265	     12.67664265	     11.26210092	      2.25265251	     -6.44751380	     32.60116607	    -10.12243786	      0.26574252	     26.56362918	     26.56362918	      7.26712715	    -12.27061540	     11.56468132	    -10.90234067	      6.15431593	      5.55807849	     32.71173684	    -21.14616071	     -5.57785713	     81.94201804	     45.33903422	      0.00000000	      0.00000000	     -7.63194737	     -7.98134123	     -3.72689044	     31.74091182	     45.20487567	      0.00000000	      0.00000000
      7.58771429	     -3.22385905	     -4.84572169	      7.83885495	      1.01711499	      0.93154208	      0.50428475	      6.12223718	      2.46344342	    -19.53330198	     12.27981519	     12.27981519	     11.34491775	      2.57041712	     -6.84950209	     32.23785906	    -10.04977249	     -0.00628582	     23.70240072	     23.70240072	      6.85511864	    -10.47071525	     10.98963447	    -10.97514729	      6.38218498	      5.41503654	     34.06403928	    -20.64800970	     -5.11378591	     82.62429454	     45.30704198	      0.00000000	      0.00000000	     -8.32833582	     -7.76144516	     -3.45065890	     32.17139434	     45.17256467	      0.00000000	      0.00000000
      7.60085714	     -3.36907661	     -4.97024858	      7.94757430	      1.01609238	      0.93088483	      0.50318704	      5.91438451	      2.56844712	    -19.59126772	     12.15250150	     12.15250150	     11.55931612	      2.58035127	     -7.01640145	     32.03837862	     -9.89891725	     -0.19675976	     21.29419711	     21.29419711	      6.56687413	     -8.93474674	     11.23602363	    -10.85985933	      6.51599828	      5.62234800	     34.97490015	    -20.44880968	     -5.02487790	     83.03297643	     45.29475151	      0.00000000	      0.00000000	     -8.59941479	     -7.49088355	     -3.34102089	     32.19051660	     45.15829331	      0.00000000	      0.00000000
      7.61400000	     -3.38250313	     -5.01731361	      8.01156077	      1.01543166	      0.93047952	      0.50200125	      5.45405035	      2.63252808	    -19.62004468	     11.87633901	     11.87633901	     11.75913145	      2.72288055	     -7.16666517	     31.64957919	     -9.76334904	     -0.66372198	     19.32850751	     19.32850751	      6.29471537	     -7.21864448	     11.27564705	    -10.87328553	      6.55912560	      5.65569126	     35.84538757	    -19.96317614	     -4.83173280	     83.54640267	     45.27526730	      0.00000000	      0.00000000	     -8.93154582	     -7.28133279	     -3.20369601	     32.15425503	     45.14115235	      0.00000000	      0.00000000
      7.62714286	     -3.53736415	     -5.27304672	      8.07628668	      1.01476351	      0.92963772	      0.50071010	      5.24326365	      2.87051650	    -19.68286009	     11.73630972	     11.73630972	     11.99835407	      2.81326264	     -7.29751984	     31.67551382	     -9.75122444	     -0.77721350	     18.17892432	     18.17892432	      6.04385545	     -6.17420341	     11.37601953	    -10.65022799	      6.86071048	      5.90198876	     36.64570545	    -19.74714946	     -4.78103638	     83.90307023	     45.26546171	      0.00000000	      0.00000000	     -9.11566966	     -6.98230224	     -3.11762508	     32.12851693	     45.12904716	      0.00000000	      0.00000000
